<?xml version="1.0" standalone="no"?>
<!DOCTYPE svg PUBLIC "-//W3C//DTD SVG 20010904//EN"
 "http://www.w3.org/TR/2001/REC-SVG-20010904/DTD/svg10.dtd">
<svg version="1.0" xmlns="http://www.w3.org/2000/svg"
 width="475.000000pt" height="125.000000pt" viewBox="0 0 475.000000 125.000000"
 preserveAspectRatio="xMidYMid meet">

<g transform="translate(0.000000,125.000000) scale(0.100000,-0.100000)"
fill="#000000" stroke="none">
<path d="M605 1113 c-105 -15 -197 -59 -277 -132 -48 -44 -51 -50 -57 -107 -5
-54 -6 -56 -12 -24 l-6 35 -2 -37 c0 -21 4 -38 9 -38 6 0 10 -5 10 -11 0 -5
-4 -7 -10 -4 -5 3 -10 -2 -10 -12 1 -16 3 -15 20 6 11 12 18 27 15 31 -3 5 -1
10 4 12 5 1 11 9 13 17 9 42 128 150 207 189 74 36 77 37 195 37 118 0 123 -1
193 -35 82 -40 88 -35 10 8 -90 51 -215 78 -302 65z"/>
<path d="M597 1035 c-27 -7 -52 -17 -55 -20 -4 -4 2 -5 13 -2 139 38 306 -10
400 -115 l46 -52 -3 49 c-3 45 -6 50 -51 81 -96 66 -237 90 -350 59z"/>
<path d="M687 913 c-142 -3 -156 -5 -142 -19 11 -12 15 -38 15 -115 0 -87 -2
-99 -17 -101 -10 -1 41 -4 114 -7 117 -5 135 -9 165 -30 l33 -24 -32 34 c-30
30 -39 34 -103 37 l-70 4 0 94 0 94 68 0 c77 0 113 -15 123 -50 6 -20 7 -17 8
17 1 23 4 48 7 57 3 9 2 15 -2 14 -5 -1 -80 -4 -167 -5z"/>
<path d="M2017 833 c-4 -3 -7 -105 -7 -225 l0 -218 40 0 40 0 0 89 c0 108 12
145 51 161 24 10 33 10 54 -4 24 -16 25 -20 25 -131 l0 -115 40 0 40 0 0 115
c0 124 -13 175 -48 194 -33 18 -97 13 -125 -9 -14 -11 -28 -20 -31 -20 -3 0
-6 38 -6 85 l0 85 -33 0 c-19 0 -37 -3 -40 -7z"/>
<path d="M4164 826 c-3 -8 -4 -100 -2 -204 3 -166 5 -192 21 -210 20 -22 58
-32 88 -25 28 8 25 55 -3 68 -23 10 -23 14 -26 198 l-2 187 -36 0 c-21 0 -37
-6 -40 -14z"/>
<path d="M1050 600 l0 -210 135 0 135 0 0 35 0 35 -90 0 -90 0 0 175 0 175
-45 0 -45 0 0 -210z"/>
<path d="M2730 600 l0 -210 45 0 45 0 0 79 0 79 75 4 c68 3 78 6 106 35 25 24
33 42 36 80 5 58 -10 89 -56 120 -30 20 -46 23 -142 23 l-109 0 0 -210z m212
120 c25 -30 23 -56 -7 -85 -18 -19 -35 -25 -70 -25 l-45 0 0 71 0 72 52 -5
c38 -4 57 -12 70 -28z"/>
<path d="M1414 691 c-43 -26 -47 -35 -25 -62 19 -23 20 -23 39 -6 29 27 94 34
112 13 20 -25 -3 -43 -75 -61 -94 -24 -126 -75 -90 -145 27 -53 126 -61 163
-12 11 15 14 14 28 -6 11 -16 25 -22 53 -22 21 0 40 2 43 5 11 12 -5 53 -23
58 -17 5 -19 15 -19 100 0 53 -3 103 -6 112 -18 45 -142 61 -200 26z m132
-197 c-13 -50 -87 -69 -101 -25 -10 32 6 50 53 64 52 14 60 8 48 -39z"/>
<path d="M1749 695 c-50 -27 -61 -102 -19 -140 10 -9 45 -24 77 -34 50 -15 58
-20 58 -42 0 -20 -6 -25 -33 -27 -20 -2 -46 4 -67 16 l-33 20 -22 -23 c-19
-21 -20 -24 -5 -39 29 -29 57 -38 117 -39 71 0 109 23 121 74 17 68 -12 100
-121 129 -36 9 -43 15 -40 33 4 28 58 36 92 13 22 -14 25 -13 45 8 l22 24 -27
21 c-32 25 -124 29 -165 6z"/>
<path d="M2350 706 c0 -3 27 -75 60 -161 33 -86 60 -162 60 -169 0 -28 -27
-48 -66 -48 -42 0 -54 -10 -54 -45 0 -21 5 -23 50 -23 59 0 94 14 116 48 16
24 154 378 154 394 0 5 -17 8 -38 8 l-38 0 -38 -111 c-21 -60 -42 -107 -46
-102 -4 4 -14 28 -23 53 -62 172 -54 160 -98 160 -21 0 -39 -2 -39 -4z"/>
<path d="M3138 688 c-41 -24 -45 -33 -24 -61 13 -17 16 -17 54 3 51 27 96 24
100 -7 4 -26 -16 -38 -77 -48 -115 -19 -140 -151 -36 -185 40 -13 71 -6 103
23 l22 21 16 -22 c11 -16 25 -22 55 -22 36 0 39 2 39 29 0 20 -6 30 -20 34
-18 5 -20 14 -20 102 0 93 -1 97 -29 126 -26 25 -37 29 -88 29 -41 0 -69 -7
-95 -22z m138 -170 c-3 -13 -6 -29 -6 -35 0 -7 -11 -20 -25 -29 -37 -24 -78
-5 -73 34 2 21 11 30 38 39 56 19 73 17 66 -9z"/>
<path d="M3450 550 l0 -160 40 0 40 0 0 109 c0 107 1 110 27 131 28 22 70 20
85 -3 4 -7 8 -63 8 -124 l0 -113 40 0 40 0 0 129 c0 125 -1 131 -26 160 -22
27 -32 31 -74 31 -38 0 -55 -6 -79 -26 l-31 -26 0 26 c0 23 -4 26 -35 26 l-35
0 0 -160z"/>
<path d="M3873 691 c-52 -33 -68 -66 -68 -142 0 -73 14 -103 68 -143 35 -26
131 -27 170 -1 45 29 52 51 23 70 -23 16 -27 15 -55 -6 -41 -30 -95 -20 -116
21 -8 16 -15 31 -15 35 0 3 48 5 106 5 l106 0 -4 60 c-6 86 -34 113 -120 118
-50 2 -70 -1 -95 -17z m131 -63 c29 -41 21 -48 -49 -48 -54 0 -65 3 -65 17 0
50 85 73 114 31z"/>
<path d="M4384 701 c-30 -13 -54 -50 -54 -82 0 -44 35 -78 100 -96 33 -9 62
-23 65 -31 15 -41 -63 -57 -107 -22 l-25 19 -23 -24 c-25 -27 -21 -39 23 -61
41 -22 124 -22 163 -1 65 34 65 130 1 160 -18 9 -49 18 -70 22 -65 12 -69 65
-5 65 16 0 39 -7 53 -16 22 -15 24 -14 41 11 16 24 16 27 1 43 -19 19 -129 27
-163 13z"/>
<path d="M558 531 c4 -142 -4 -183 -39 -192 -13 -4 30 -7 96 -7 66 1 107 3 90
5 -49 7 -55 25 -55 155 l0 118 -40 0 c-33 0 -40 3 -38 16 2 10 -1 19 -7 20 -6
3 -9 -39 -7 -115z"/>
<path d="M758 643 c7 -3 16 -2 19 1 4 3 -2 6 -13 5 -11 0 -14 -3 -6 -6z"/>
<path d="M265 470 c3 -5 8 -10 11 -10 2 0 4 5 4 10 0 6 -5 10 -11 10 -5 0 -7
-4 -4 -10z"/>
<path d="M252 430 c0 -19 2 -27 5 -17 2 9 2 25 0 35 -3 9 -5 1 -5 -18z"/>
<path d="M275 438 c-11 -36 -10 -88 2 -92 7 -3 12 -10 11 -15 -6 -19 99 -103
171 -138 66 -32 86 -37 170 -41 69 -3 114 0 160 12 67 17 159 64 182 93 9 11
2 9 -19 -6 -129 -90 -339 -93 -485 -8 -49 29 -152 135 -162 167 -3 11 -11 20
-16 20 -6 0 -7 5 -4 10 3 6 4 10 0 10 -3 0 -7 -6 -10 -12z"/>
<path d="M945 356 c-28 -29 -77 -65 -110 -82 -51 -25 -75 -30 -165 -34 l-105
-5 54 -14 c104 -27 236 0 334 68 44 30 47 35 47 76 0 25 -1 45 -2 44 -2 -1
-25 -25 -53 -53z"/>
</g>
</svg>
